<svg xmlns="http://www.w3.org/2000/svg" viewBox="0 0 16 16" fill="currentColor">
  <!-- Block Atlas: Texture atlas grid -->
  <rect x="1" y="1" width="14" height="14" fill-opacity="0.1"/>
  <rect x="1" y="1" width="3.5" height="3.5"/>
  <rect x="4.5" y="1" width="3.5" height="3.5" fill-opacity="0.8"/>
  <rect x="8" y="1" width="3.5" height="3.5" fill-opacity="0.6"/>
  <rect x="11.5" y="1" width="3.5" height="3.5" fill-opacity="0.4"/>
  <rect x="1" y="4.5" width="3.5" height="3.5" fill-opacity="0.9"/>
  <rect x="4.5" y="4.5" width="3.5" height="3.5" fill-opacity="0.7"/>
  <rect x="8" y="4.5" width="3.5" height="3.5" fill-opacity="0.5"/>
  <rect x="11.5" y="4.5" width="3.5" height="3.5" fill-opacity="0.3"/>
  <rect x="1" y="8" width="3.5" height="3.5" fill-opacity="0.7"/>
  <rect x="4.5" y="8" width="3.5" height="3.5" fill-opacity="0.5"/>
  <rect x="8" y="8" width="3.5" height="3.5" fill-opacity="0.3"/>
  <rect x="11.5" y="8" width="3.5" height="3.5" fill-opacity="0.2"/>
  <rect x="1" y="11.5" width="3.5" height="3.5" fill-opacity="0.5"/>
  <rect x="4.5" y="11.5" width="3.5" height="3.5" fill-opacity="0.3"/>
  <rect x="8" y="11.5" width="3.5" height="3.5" fill-opacity="0.2"/>
  <rect x="11.5" y="11.5" width="3.5" height="3.5" fill-opacity="0.1"/>
</svg>
