<svg xmlns="http://www.w3.org/2000/svg" viewBox="0 0 16 16" fill="currentColor">
  <!-- Build Process: Gears in motion -->
  <circle cx="5" cy="6" r="3" fill-opacity="0.3"/>
  <path d="M5 3V2M5 10V9M8 6H9M1 6H2M7.1 3.9L7.8 3.2M2.2 8.8L2.9 8.1M7.1 8.1L7.8 8.8M2.2 3.2L2.9 3.9" stroke="currentColor" stroke-width="1"/>
  <circle cx="5" cy="6" r="1.2"/>
  <circle cx="11" cy="10" r="2.5" fill-opacity="0.4"/>
  <path d="M11 7.5V6.8M11 13.2V12.5M13.5 10H14.2M7.8 10H8.5M13 8L13.5 7.5M8.5 12.5L9 12M13 12L13.5 12.5M8.5 7.5L9 8" stroke="currentColor" stroke-width="0.8"/>
  <circle cx="11" cy="10" r="0.9"/>
</svg>
