<svg xmlns="http://www.w3.org/2000/svg" viewBox="0 0 16 16" fill="currentColor">
  <!-- Database: Stacked database cylinders -->
  <ellipse cx="8" cy="3" rx="6" ry="2"/>
  <path d="M2 3V6C2 7.1 4.7 8 8 8C11.3 8 14 7.1 14 6V3" fill-opacity="0.3"/>
  <ellipse cx="8" cy="6" rx="6" ry="2" fill-opacity="0.5"/>
  <path d="M2 6V9C2 10.1 4.7 11 8 11C11.3 11 14 10.1 14 9V6" fill-opacity="0.2"/>
  <ellipse cx="8" cy="9" rx="6" ry="2" fill-opacity="0.6"/>
  <path d="M2 9V12C2 13.1 4.7 14 8 14C11.3 14 14 13.1 14 12V9" fill-opacity="0.15"/>
  <ellipse cx="8" cy="12" rx="6" ry="2" fill-opacity="0.7"/>
</svg>
