<svg xmlns="http://www.w3.org/2000/svg" viewBox="0 0 16 16" fill="currentColor">
  <!-- Lighting: Light bulb -->
  <path d="M5 9C4 7.5 4 5 6 3.5C7.5 2.5 8.5 2.5 10 3.5C12 5 12 7.5 11 9L10.5 10H5.5L5 9Z" fill-opacity="0.15"/>
  <path d="M6 8.5C5 7 5 5 6.5 4C7.5 3.3 8.5 3.3 9.5 4C11 5 11 7 10 8.5L9.5 9.5H6.5L6 8.5Z" fill-opacity="0.5"/>
  <rect x="6" y="10" width="4" height="2" rx="0.5"/>
  <rect x="6.5" y="12.5" width="3" height="1" rx="0.3"/>
  <path d="M8 1V2.5" stroke="currentColor" stroke-width="0.8" stroke-linecap="round"/>
  <path d="M3 4L4 5" stroke="currentColor" stroke-width="0.6" stroke-linecap="round"/>
  <path d="M13 4L12 5" stroke="currentColor" stroke-width="0.6" stroke-linecap="round"/>
  <path d="M2 8H3.5" stroke="currentColor" stroke-width="0.6" stroke-linecap="round"/>
  <path d="M14 8H12.5" stroke="currentColor" stroke-width="0.6" stroke-linecap="round"/>
</svg>
