<svg xmlns="http://www.w3.org/2000/svg" viewBox="0 0 32 32" width="32" height="32">
  <g transform="translate(0, 0)"><rect x="0" y="0" width="6" height="3" fill="#8b0000"/><rect x="6" y="0" width="9" height="3" fill="#ff4500"/><rect x="15" y="0" width="3" height="3" fill="#ff8c00"/><rect x="18" y="0" width="3" height="3" fill="#cc3300"/><rect x="21" y="0" width="3" height="3" fill="#8b0000"/><rect x="24" y="0" width="8" height="3" fill="#ff4500"/><rect x="0" y="3" width="3" height="3" fill="#ff6600"/><rect x="3" y="3" width="6" height="3" fill="#8b0000"/><rect x="9" y="3" width="3" height="3" fill="#cc3300"/><rect x="12" y="3" width="3" height="3" fill="#ff4500"/><rect x="15" y="3" width="3" height="3" fill="#8b0000"/><rect x="18" y="3" width="3" height="3" fill="#ff6600"/><rect x="21" y="3" width="3" height="3" fill="#ff8c00"/><rect x="24" y="3" width="3" height="3" fill="#ff4500"/><rect x="27" y="3" width="3" height="3" fill="#ff8c00"/><rect x="30" y="3" width="2" height="3" fill="#cc3300"/><rect x="0" y="6" width="6" height="3" fill="#ff4500"/><rect x="6" y="6" width="3" height="3" fill="#ff8c00"/><rect x="9" y="6" width="9" height="3" fill="#ff4500"/><rect x="18" y="6" width="3" height="3" fill="#ff6600"/><rect x="21" y="6" width="3" height="3" fill="#8b0000"/><rect x="24" y="6" width="3" height="3" fill="#ff6600"/><rect x="27" y="6" width="5" height="3" fill="#ff4500"/><rect x="0" y="9" width="3" height="3" fill="#ff4500"/><rect x="3" y="9" width="3" height="3" fill="#ff8c00"/><rect x="6" y="9" width="6" height="3" fill="#ff4500"/><rect x="12" y="9" width="3" height="3" fill="#ff6600"/><rect x="15" y="9" width="15" height="3" fill="#ff4500"/><rect x="30" y="9" width="2" height="3" fill="#cc3300"/><rect x="0" y="12" width="3" height="3" fill="#ff4500"/><rect x="3" y="12" width="3" height="3" fill="#ff8c00"/><rect x="6" y="12" width="12" height="3" fill="#ff4500"/><rect x="18" y="12" width="3" height="3" fill="#ff8c00"/><rect x="21" y="12" width="6" height="3" fill="#cc3300"/><rect x="27" y="12" width="5" height="3" fill="#ff4500"/><rect x="0" y="15" width="3" height="3" fill="#ff4500"/><rect x="3" y="15" width="3" height="3" fill="#cc3300"/><rect x="6" y="15" width="3" height="3" fill="#8b0000"/><rect x="9" y="15" width="3" height="3" fill="#ff4500"/><rect x="12" y="15" width="6" height="3" fill="#cc3300"/><rect x="18" y="15" width="3" height="3" fill="#ff6600"/><rect x="21" y="15" width="3" height="3" fill="#ff4500"/><rect x="24" y="15" width="3" height="3" fill="#ff8c00"/><rect x="27" y="15" width="3" height="3" fill="#ff4500"/><rect x="30" y="15" width="2" height="3" fill="#ff8c00"/><rect x="0" y="18" width="3" height="3" fill="#8b0000"/><rect x="3" y="18" width="3" height="3" fill="#ff8c00"/><rect x="6" y="18" width="6" height="3" fill="#ff4500"/><rect x="12" y="18" width="6" height="3" fill="#ff6600"/><rect x="18" y="18" width="3" height="3" fill="#ff4500"/><rect x="21" y="18" width="3" height="3" fill="#8b0000"/><rect x="24" y="18" width="3" height="3" fill="#ff4500"/><rect x="27" y="18" width="3" height="3" fill="#ff6600"/><rect x="30" y="18" width="2" height="3" fill="#ff8c00"/><rect x="0" y="21" width="9" height="3" fill="#ff4500"/><rect x="9" y="21" width="6" height="3" fill="#ff8c00"/><rect x="15" y="21" width="3" height="3" fill="#ff4500"/><rect x="18" y="21" width="6" height="3" fill="#ff6600"/><rect x="24" y="21" width="6" height="3" fill="#cc3300"/><rect x="30" y="21" width="2" height="3" fill="#ff4500"/><rect x="0" y="24" width="3" height="3" fill="#8b0000"/><rect x="3" y="24" width="6" height="3" fill="#ff4500"/><rect x="9" y="24" width="3" height="3" fill="#cc3300"/><rect x="12" y="24" width="3" height="3" fill="#ff4500"/><rect x="15" y="24" width="3" height="3" fill="#cc3300"/><rect x="18" y="24" width="3" height="3" fill="#ff4500"/><rect x="21" y="24" width="3" height="3" fill="#ff8c00"/><rect x="24" y="24" width="3" height="3" fill="#8b0000"/><rect x="27" y="24" width="3" height="3" fill="#cc3300"/><rect x="30" y="24" width="2" height="3" fill="#8b0000"/><rect x="0" y="27" width="3" height="3" fill="#ff4500"/><rect x="3" y="27" width="3" height="3" fill="#cc3300"/><rect x="6" y="27" width="3" height="3" fill="#ff4500"/><rect x="9" y="27" width="3" height="3" fill="#cc3300"/><rect x="12" y="27" width="3" height="3" fill="#ff6600"/><rect x="15" y="27" width="3" height="3" fill="#ff8c00"/><rect x="18" y="27" width="3" height="3" fill="#ff4500"/><rect x="21" y="27" width="3" height="3" fill="#ff8c00"/><rect x="24" y="27" width="3" height="3" fill="#ff4500"/><rect x="27" y="27" width="3" height="3" fill="#ff6600"/><rect x="30" y="27" width="2" height="3" fill="#ff4500"/><rect x="0" y="30" width="12" height="2" fill="#ff4500"/><rect x="12" y="30" width="3" height="2" fill="#ff6600"/><rect x="15" y="30" width="3" height="2" fill="#ff4500"/><rect x="18" y="30" width="3" height="2" fill="#cc3300"/><rect x="21" y="30" width="3" height="2" fill="#ff4500"/><rect x="24" y="30" width="3" height="2" fill="#ff8c00"/><rect x="27" y="30" width="5" height="2" fill="#ff6600"/></g>
</svg>