<svg width="384" height="384" xmlns="http://www.w3.org/2000/svg" xmlns:xlink="http://www.w3.org/1999/xlink" overflow="hidden"><defs><clipPath id="clip0"><rect x="0" y="0" width="384" height="384"/></clipPath></defs><g clip-path="url(#clip0)"><rect x="9" y="8" width="368" height="368" stroke="#0D0D0D" stroke-width="16" stroke-miterlimit="8" fill="none"/><rect x="61" y="77" width="87" height="87" stroke="#0D0D0D" stroke-width="16" stroke-miterlimit="8" fill="none"/><rect x="237" y="78" width="87" height="87" stroke="#0D0D0D" stroke-width="16" stroke-miterlimit="8" fill="none"/><path d="M148 164 235.5 164" stroke="#0D0D0D" stroke-width="16" stroke-miterlimit="8" fill="none" fill-rule="evenodd"/><path d="M237 165 237 213.96" stroke="#0D0D0D" stroke-width="16" stroke-miterlimit="8" fill="none" fill-rule="evenodd"/><path d="M0 0 56.381 0.000104987" stroke="#0D0D0D" stroke-width="16" stroke-miterlimit="8" fill="none" fill-rule="evenodd" transform="matrix(-1 0 0 1 286.381 210)"/><path d="M0 0 0.000104987 133.44" stroke="#0D0D0D" stroke-width="16" stroke-miterlimit="8" fill="none" fill-rule="evenodd" transform="matrix(1 0 0 -1 278 343.44)"/><path d="M0 0 56.64 0.000104987" stroke="#0D0D0D" stroke-width="16" stroke-miterlimit="8" fill="none" fill-rule="evenodd" transform="matrix(-1 0 0 1 285.64 340)"/><path d="M0 0 59.52 0.000104987" stroke="#0D0D0D" stroke-width="16" stroke-miterlimit="8" fill="none" fill-rule="evenodd" transform="matrix(-1 0 0 1 155.52 340)"/><path d="M104 210 104 339.5" stroke="#0D0D0D" stroke-width="16" stroke-miterlimit="8" fill="none" fill-rule="evenodd"/><path d="M148 291 148 342.84" stroke="#0D0D0D" stroke-width="16" stroke-miterlimit="8" fill="none" fill-rule="evenodd"/><path d="M140 294 244.64 294" stroke="#0D0D0D" stroke-width="16" stroke-miterlimit="8" fill="none" fill-rule="evenodd"/><path d="M96 210 155.429 210" stroke="#0D0D0D" stroke-width="16" stroke-miterlimit="8" fill="none" fill-rule="evenodd"/><path d="M148 164 148 212.96" stroke="#0D0D0D" stroke-width="16" stroke-miterlimit="8" fill="none" fill-rule="evenodd"/><path d="M237 291 237 342.84" stroke="#0D0D0D" stroke-width="16" stroke-miterlimit="8" fill="none" fill-rule="evenodd"/></g></svg>