<svg width="384" height="384" xmlns="http://www.w3.org/2000/svg" xmlns:xlink="http://www.w3.org/1999/xlink" overflow="hidden"><defs><clipPath id="clip0"><rect x="0" y="0" width="384" height="384"/></clipPath></defs><g clip-path="url(#clip0)"><rect x="9" y="8" width="368" height="368" stroke="#E7E6E6" stroke-width="16" stroke-miterlimit="8" fill="none"/><rect x="61" y="78" width="87" height="87" stroke="#E7E6E6" stroke-width="16" stroke-miterlimit="8" fill="none"/><rect x="237" y="79" width="87" height="87" stroke="#E7E6E6" stroke-width="16" stroke-miterlimit="8" fill="none"/><path d="M148 165 235.5 165" stroke="#E7E6E6" stroke-width="16" stroke-miterlimit="8" fill="none" fill-rule="evenodd"/><path d="M237 166 237 214.96" stroke="#E7E6E6" stroke-width="16" stroke-miterlimit="8" fill="none" fill-rule="evenodd"/><path d="M0 0 56.381 0.000104987" stroke="#E7E6E6" stroke-width="16" stroke-miterlimit="8" fill="none" fill-rule="evenodd" transform="matrix(-1 0 0 1 286.381 211)"/><path d="M0 0 0.000104987 133.44" stroke="#E7E6E6" stroke-width="16" stroke-miterlimit="8" fill="none" fill-rule="evenodd" transform="matrix(1 0 0 -1 278 344.44)"/><path d="M0 0 56.64 0.000104987" stroke="#E7E6E6" stroke-width="16" stroke-miterlimit="8" fill="none" fill-rule="evenodd" transform="matrix(-1 0 0 1 285.64 340)"/><path d="M0 0 59.52 0.000104987" stroke="#E7E6E6" stroke-width="16" stroke-miterlimit="8" fill="none" fill-rule="evenodd" transform="matrix(-1 0 0 1 155.52 340)"/><path d="M104 211 104 340.5" stroke="#E7E6E6" stroke-width="16" stroke-miterlimit="8" fill="none" fill-rule="evenodd"/><path d="M148 292 148 343.84" stroke="#E7E6E6" stroke-width="16" stroke-miterlimit="8" fill="none" fill-rule="evenodd"/><path d="M140 295 244.64 295" stroke="#E7E6E6" stroke-width="16" stroke-miterlimit="8" fill="none" fill-rule="evenodd"/><path d="M96 211 155.429 211" stroke="#E7E6E6" stroke-width="16" stroke-miterlimit="8" fill="none" fill-rule="evenodd"/><path d="M148 165 148 213.96" stroke="#E7E6E6" stroke-width="16" stroke-miterlimit="8" fill="none" fill-rule="evenodd"/><path d="M237 292 237 343.84" stroke="#E7E6E6" stroke-width="16" stroke-miterlimit="8" fill="none" fill-rule="evenodd"/></g></svg>