<svg width="1348" height="1348" xmlns="http://www.w3.org/2000/svg" xmlns:xlink="http://www.w3.org/1999/xlink" xml:space="preserve" overflow="hidden"><defs><clipPath id="clip0"><rect x="-14" y="-14" width="1348" height="1348"/></clipPath></defs><g clip-path="url(#clip0)" transform="translate(14 14)"><rect x="0" y="0" width="1320" height="1320" stroke="#7AAA45" stroke-width="27.5" stroke-miterlimit="8" fill="none"/><rect x="206" y="337" width="299" height="299" stroke="#181717" stroke-width="27.5" stroke-miterlimit="8" fill="none"/><rect x="813" y="340" width="299" height="299" stroke="#181717" stroke-width="27.5" stroke-miterlimit="8" fill="none"/><path d="M505 636 805.781 636" stroke="#181717" stroke-width="27.5" stroke-miterlimit="8" fill="none" fill-rule="evenodd"/><path d="M813 639 813 807.3" stroke="#181717" stroke-width="27.5" stroke-miterlimit="8" fill="none" fill-rule="evenodd"/><path d="M0 0 161.7 0.000360892" stroke="#181717" stroke-width="27.5" stroke-miterlimit="8" fill="none" fill-rule="evenodd" transform="matrix(-1 0 0 1 969.7 794)"/><path d="M0 0 0.000360892 458.7" stroke="#181717" stroke-width="27.5" stroke-miterlimit="8" fill="none" fill-rule="evenodd" transform="matrix(1 0 0 -1 956 1252.7)"/><path d="M0 0 155.1 0.000360892" stroke="#181717" stroke-width="27.5" stroke-miterlimit="8" fill="none" fill-rule="evenodd" transform="matrix(-1 0 0 1 956.1 1239)"/><path d="M0 0 174.9 0.000360892" stroke="#181717" stroke-width="27.5" stroke-miterlimit="8" fill="none" fill-rule="evenodd" transform="matrix(-1 0 0 1 516.9 1239)"/><path d="M356 794 356 1239.16" stroke="#181717" stroke-width="27.5" stroke-miterlimit="8" fill="none" fill-rule="evenodd"/><path d="M505 1072 505 1250.2" stroke="#181717" stroke-width="27.5" stroke-miterlimit="8" fill="none" fill-rule="evenodd"/><path d="M512 1086 812.781 1086" stroke="#181717" stroke-width="27.5" stroke-miterlimit="8" fill="none" fill-rule="evenodd"/><path d="M342 794 516.9 794" stroke="#181717" stroke-width="27.5" stroke-miterlimit="8" fill="none" fill-rule="evenodd"/><path d="M505 636 505 804.3" stroke="#181717" stroke-width="27.5" stroke-miterlimit="8" fill="none" fill-rule="evenodd"/><path d="M813 1072 813 1250.2" stroke="#181717" stroke-width="27.5" stroke-miterlimit="8" fill="none" fill-rule="evenodd"/></g></svg>